Gait_lateral_09_analogdata.mot
version=1
nRows=65
nColumns=19
inDegrees=yes
endheader
time	1_ground_force_vx	1_ground_force_vy	1_ground_force_vz	1_ground_force_px	1_ground_force_py	1_ground_force_pz	1_ground_torque_x	1_ground_torque_y	1_ground_torque_z	2_ground_force_vx	2_ground_force_vy	2_ground_force_vz	2_ground_force_px	2_ground_force_py	2_ground_force_pz	2_ground_torque_x	2_ground_torque_y	2_ground_torque_z
0.430000	-25.449497	518.417969	-15.425765	-0.107326	0.000000	-0.412097	-0.012114	0.246765	-0.007343	0.000000	0.000000	-0.000000	-0.200000	0.000000	0.302000	0.000000	0.000000	-0.000000
0.431000	-23.845953	521.917175	-14.894950	-0.106603	0.000000	-0.410840	-0.023466	0.513602	-0.014658	0.000000	0.000000	-0.000000	-0.200000	0.000000	0.302000	0.000000	0.000000	-0.000000
0.432000	-24.024124	519.467712	-15.691172	-0.105811	0.000000	-0.412156	-0.022546	0.487513	-0.014726	0.000000	0.000000	-0.000000	-0.200000	0.000000	0.302000	0.000000	0.000000	-0.000000
0.433000	-24.380468	517.368164	-14.806480	-0.106207	0.000000	-0.413054	-0.022501	0.477484	-0.013665	0.000000	0.000000	-0.000000	-0.200000	0.000000	0.302000	0.000000	0.000000	-0.000000
0.434000	-24.558639	511.069580	-13.744849	-0.105415	0.000000	-0.413004	-0.019117	0.397826	-0.010699	0.000000	0.000000	-0.000000	-0.200000	0.000000	0.302000	0.000000	0.000000	-0.000000
0.435000	-23.489611	516.668335	-12.594749	-0.106561	0.000000	-0.411020	-0.039791	0.875230	-0.021335	0.000000	0.000000	-0.000000	-0.200000	0.000000	0.302000	0.000000	0.000000	-0.000000
0.436000	-21.618809	520.517517	-14.010257	-0.106758	0.000000	-0.409572	-0.034693	0.835303	-0.022483	0.000000	0.000000	-0.000000	-0.200000	0.000000	0.302000	0.000000	0.000000	-0.000000
0.437000	-24.647726	519.467712	-14.010258	-0.107006	0.000000	-0.410042	-0.026160	0.551345	-0.014870	0.000000	0.000000	-0.000000	-0.200000	0.000000	0.302000	0.000000	0.000000	-0.000000
0.438000	-24.647726	521.917175	-14.275665	-0.107035	0.000000	-0.408009	-0.014908	0.315677	-0.008635	0.000000	0.000000	-0.000000	-0.200000	0.000000	0.302000	0.000000	0.000000	-0.000000
0.439000	-24.380468	524.716553	-13.214034	-0.106762	0.000000	-0.407353	-0.018568	0.399611	-0.010063	0.000000	0.000000	-0.000000	-0.200000	0.000000	0.302000	0.000000	0.000000	-0.000000
0.440000	-25.182239	520.167542	-14.275665	-0.106503	0.000000	-0.409005	-0.022661	0.468098	-0.012847	0.000000	0.000000	-0.000000	-0.200000	0.000000	0.302000	0.000000	0.000000	-0.000000
0.441000	-25.538584	519.467712	-12.948627	-0.106322	0.000000	-0.408862	-0.009820	0.199746	-0.004979	0.000000	0.000000	-0.000000	-0.200000	0.000000	0.302000	0.000000	0.000000	-0.000000
0.442000	-25.004068	518.068054	-12.771688	-0.105150	0.000000	-0.408539	-0.011114	0.230279	-0.005677	0.000000	0.000000	-0.000000	-0.200000	0.000000	0.302000	0.000000	0.000000	-0.000000
0.443000	-24.558640	521.567261	-11.886996	-0.105756	0.000000	-0.408403	-0.044831	0.952097	-0.021699	0.000000	0.000000	-0.000000	-0.200000	0.000000	0.302000	0.000000	0.000000	-0.000000
0.444000	-23.845953	518.417969	-12.152404	-0.106814	0.000000	-0.408154	-0.033315	0.724281	-0.016978	0.000000	0.000000	-0.000000	-0.200000	0.000000	0.302000	0.000000	0.000000	-0.000000
0.445000	-24.825897	517.368164	-11.533119	-0.105581	0.000000	-0.405330	-0.018987	0.395689	-0.008821	0.000000	0.000000	-0.000000	-0.200000	0.000000	0.302000	0.000000	0.000000	-0.000000
0.446000	-24.024124	526.466187	-10.913834	-0.106859	0.000000	-0.404920	-0.027368	0.599752	-0.012433	0.000000	0.000000	-0.000000	-0.200000	0.000000	0.302000	0.000000	0.000000	-0.000000
0.447000	-24.380468	525.066467	-13.125564	-0.105922	0.000000	-0.406226	-0.015365	0.330915	-0.008272	0.000000	0.000000	-0.000000	-0.200000	0.000000	0.302000	0.000000	0.000000	-0.000000
0.448000	-24.736811	521.567261	-11.886996	-0.105655	0.000000	-0.405859	-0.002874	0.060597	-0.001381	0.000000	0.000000	-0.000000	-0.200000	0.000000	0.302000	0.000000	0.000000	-0.000000
0.449000	-25.627671	523.666809	-10.559958	-0.105257	0.000000	-0.405456	-0.013919	0.284411	-0.005735	0.000000	0.000000	-0.000000	-0.200000	0.000000	0.302000	0.000000	0.000000	-0.000000
0.450000	-24.291382	522.966919	-9.675265	-0.105129	0.000000	-0.406567	-0.016265	0.350173	-0.006478	0.000000	0.000000	-0.000000	-0.200000	0.000000	0.302000	0.000000	0.000000	-0.000000
0.451000	-24.914984	517.368164	-10.559957	-0.103893	0.000000	-0.407091	-0.011962	0.248396	-0.005070	0.000000	0.000000	-0.000000	-0.200000	0.000000	0.302000	0.000000	0.000000	-0.000000
0.452000	-24.736811	523.316895	-8.967511	-0.104294	0.000000	-0.404193	-0.004894	0.103532	-0.001774	0.000000	0.000000	-0.000000	-0.200000	0.000000	0.302000	0.000000	0.000000	-0.000000
0.453000	-24.736811	522.267090	-9.675265	-0.103691	0.000000	-0.404993	0.008364	-0.176587	0.003271	0.000000	0.000000	-0.000000	-0.200000	0.000000	0.302000	0.000000	0.000000	-0.000000
0.454000	-25.271326	522.966919	-9.675265	-0.102834	0.000000	-0.406451	-0.001917	0.039667	-0.000734	0.000000	0.000000	-0.000000	-0.200000	0.000000	0.302000	0.000000	0.000000	-0.000000
0.455000	-25.538584	517.718079	-8.790573	-0.103115	0.000000	-0.407279	-0.009401	0.190576	-0.003236	0.000000	0.000000	-0.000000	-0.200000	0.000000	0.302000	0.000000	0.000000	-0.000000
0.456000	-25.182240	517.018250	-7.198127	-0.102839	0.000000	-0.405398	-0.017231	0.353766	-0.004925	0.000000	0.000000	-0.000000	-0.200000	0.000000	0.302000	0.000000	0.000000	-0.000000
0.457000	-23.756869	520.867432	-7.463534	-0.103689	0.000000	-0.404114	-0.029455	0.645808	-0.009254	0.000000	0.000000	-0.000000	-0.200000	0.000000	0.302000	0.000000	0.000000	-0.000000
0.458000	-25.182240	522.267090	-8.171289	-0.104231	0.000000	-0.403556	-0.021588	0.447718	-0.007005	0.000000	0.000000	-0.000000	-0.200000	0.000000	0.302000	0.000000	0.000000	-0.000000
0.459000	-24.647727	525.066467	-7.817411	-0.104396	0.000000	-0.401949	-0.018358	0.391077	-0.005823	0.000000	0.000000	-0.000000	-0.200000	0.000000	0.302000	0.000000	0.000000	-0.000000
0.460000	-24.914984	527.166016	-7.640473	-0.104637	0.000000	-0.401461	-0.021304	0.450768	-0.006533	0.000000	0.000000	-0.000000	-0.200000	0.000000	0.302000	0.000000	0.000000	-0.000000
0.461000	-25.894927	525.766296	-8.348227	-0.103767	0.000000	-0.401875	-0.004816	0.097776	-0.001553	0.000000	0.000000	-0.000000	-0.200000	0.000000	0.302000	0.000000	0.000000	-0.000000
0.462000	-26.073100	525.416382	-7.728942	-0.103279	0.000000	-0.402316	-0.017274	0.348091	-0.005120	0.000000	0.000000	-0.000000	-0.200000	0.000000	0.302000	0.000000	0.000000	-0.000000
0.463000	-26.162185	525.766296	-7.640473	-0.104118	0.000000	-0.401428	0.000750	-0.015069	0.000219	0.000000	0.000000	-0.000000	-0.200000	0.000000	0.302000	0.000000	0.000000	-0.000000
0.464000	-25.627671	521.917175	-7.198127	-0.102079	0.000000	-0.401475	-0.000474	0.009651	-0.000133	0.000000	0.000000	-0.000000	-0.200000	0.000000	0.302000	0.000000	0.000000	-0.000000
0.465000	-25.360414	527.865845	-6.313435	-0.103586	0.000000	-0.401250	-0.026402	0.549542	-0.006573	0.000000	0.000000	-0.000000	-0.200000	0.000000	0.302000	0.000000	0.000000	-0.000000
0.466000	-25.360413	521.217346	-6.844250	-0.102152	0.000000	-0.401899	-0.012973	0.266617	-0.003501	0.000000	0.000000	-0.000000	-0.200000	0.000000	0.302000	0.000000	0.000000	-0.000000
0.467000	-26.607614	522.966919	-5.694150	-0.102901	0.000000	-0.400850	-0.009710	0.190856	-0.002078	0.000000	0.000000	-0.000000	-0.200000	0.000000	0.302000	0.000000	0.000000	-0.000000
0.468000	-25.449498	519.817627	-6.136496	-0.100978	0.000000	-0.401368	-0.007164	0.146328	-0.001727	0.000000	0.000000	-0.000000	-0.200000	0.000000	0.302000	0.000000	0.000000	-0.000000
0.469000	-26.251271	527.865845	-4.897927	-0.103110	0.000000	-0.400089	-0.010594	0.213020	-0.001977	0.000000	0.000000	-0.000000	-0.200000	0.000000	0.302000	0.000000	0.000000	-0.000000
0.470000	-24.825898	525.766296	-5.428742	-0.102373	0.000000	-0.399802	-0.016279	0.344752	-0.003560	0.000000	0.000000	-0.000000	-0.200000	0.000000	0.302000	0.000000	0.000000	-0.000000
0.471000	-26.073100	527.865845	-4.897927	-0.102210	0.000000	-0.399046	-0.010683	0.216284	-0.002007	0.000000	0.000000	-0.000000	-0.200000	0.000000	0.302000	0.000000	0.000000	-0.000000
0.472000	-26.696700	527.865845	-5.163335	-0.102211	0.000000	-0.399387	-0.006987	0.138153	-0.001351	0.000000	0.000000	-0.000000	-0.200000	0.000000	0.302000	0.000000	0.000000	-0.000000
0.473000	-26.607614	526.466187	-4.720989	-0.101814	0.000000	-0.399210	-0.004095	0.081029	-0.000727	0.000000	0.000000	-0.000000	-0.200000	0.000000	0.302000	0.000000	0.000000	-0.000000
0.474000	-26.340356	527.166016	-4.897927	-0.101531	0.000000	-0.398712	0.005175	-0.103569	0.000962	0.000000	0.000000	-0.000000	-0.200000	0.000000	0.302000	0.000000	0.000000	-0.000000
0.475000	-27.320300	530.665222	-4.897927	-0.101626	0.000000	-0.397648	-0.004672	0.090751	-0.000838	0.000000	0.000000	-0.000000	-0.200000	0.000000	0.302000	0.000000	0.000000	-0.000000
0.476000	-27.231216	528.215759	-4.544050	-0.101656	0.000000	-0.399134	-0.000027	0.000521	-0.000004	0.000000	0.000000	-0.000000	-0.200000	0.000000	0.302000	0.000000	0.000000	-0.000000
0.477000	-27.943902	526.116272	-3.659358	-0.100777	0.000000	-0.397613	-0.001000	0.018823	-0.000131	0.000000	0.000000	-0.000000	-0.200000	0.000000	0.302000	0.000000	0.000000	-0.000000
0.478000	-26.696701	533.814514	-2.951604	-0.102067	0.000000	-0.397273	-0.020527	0.410442	-0.002269	0.000000	0.000000	-0.000000	-0.200000	0.000000	0.302000	0.000000	0.000000	-0.000000
0.479000	-27.498473	525.766296	-4.367112	-0.101196	0.000000	-0.398038	-0.006885	0.131636	-0.001093	0.000000	0.000000	-0.000000	-0.200000	0.000000	0.302000	0.000000	0.000000	-0.000000
0.480000	-29.102018	528.915649	-3.040074	-0.101646	0.000000	-0.395547	-0.007816	0.142049	-0.000816	0.000000	0.000000	-0.000000	-0.200000	0.000000	0.302000	0.000000	0.000000	-0.000000
0.481000	-27.587558	539.413330	-2.509258	-0.102881	0.000000	-0.394133	-0.018534	0.362394	-0.001686	0.000000	0.000000	-0.000000	-0.200000	0.000000	0.302000	0.000000	0.000000	-0.000000
0.482000	-27.854816	533.464600	-4.278643	-0.101801	0.000000	-0.395926	-0.001886	0.036124	-0.000290	0.000000	0.000000	-0.000000	-0.200000	0.000000	0.302000	0.000000	0.000000	-0.000000
0.483000	-30.794647	533.114685	-3.305482	-0.101673	0.000000	-0.395258	0.020467	-0.354323	0.002197	0.000000	0.000000	-0.000000	-0.200000	0.000000	0.302000	0.000000	0.000000	-0.000000
0.484000	-29.458360	535.564148	-2.243851	-0.100957	0.000000	-0.394794	-0.010356	0.188267	-0.000789	0.000000	0.000000	-0.000000	-0.200000	0.000000	0.302000	0.000000	0.000000	-0.000000
0.485000	-29.191103	533.814514	-1.536097	-0.100976	0.000000	-0.396032	-0.000262	0.004787	-0.000014	0.000000	0.000000	-0.000000	-0.200000	0.000000	0.302000	0.000000	0.000000	-0.000000
0.486000	-29.012932	530.665222	-1.801504	-0.099976	0.000000	-0.395209	0.004140	-0.075727	0.000257	0.000000	0.000000	-0.000000	-0.200000	0.000000	0.302000	0.000000	0.000000	-0.000000
0.487000	-29.636532	532.064941	-0.297528	-0.099964	0.000000	-0.395636	0.011294	-0.202759	0.000113	0.000000	0.000000	-0.000000	-0.200000	0.000000	0.302000	0.000000	0.000000	-0.000000
0.488000	-27.854816	529.265564	-0.385997	-0.098674	0.000000	-0.395933	-0.016046	0.304895	-0.000222	0.000000	0.000000	-0.000000	-0.200000	0.000000	0.302000	0.000000	0.000000	-0.000000
0.489000	-28.923845	533.464600	0.056349	-0.100774	0.000000	-0.395850	-0.007448	0.137372	0.000015	0.000000	0.000000	-0.000000	-0.200000	0.000000	0.302000	0.000000	0.000000	-0.000000
0.490000	-29.012932	527.166016	0.056349	-0.098549	0.000000	-0.395865	-0.008102	0.147209	0.000016	0.000000	0.000000	-0.000000	-0.200000	0.000000	0.302000	0.000000	0.000000	-0.000000
0.491000	-29.992876	531.365112	1.117980	-0.099901	0.000000	-0.394675	-0.007852	0.139113	0.000293	0.000000	0.000000	-0.000000	-0.200000	0.000000	0.302000	0.000000	0.000000	-0.000000
0.492000	-28.300245	532.764771	0.675634	-0.100027	0.000000	-0.393487	-0.012355	0.232579	0.000295	0.000000	0.000000	-0.000000	-0.200000	0.000000	0.302000	0.000000	0.000000	-0.000000
0.493000	-28.834761	532.764771	0.764103	-0.099615	0.000000	-0.394006	-0.013612	0.251511	0.000361	0.000000	0.000000	-0.000000	-0.200000	0.000000	0.302000	0.000000	0.000000	-0.000000
0.494000	-29.547447	534.514404	1.383388	-0.099808	0.000000	-0.393269	-0.013792	0.249503	0.000646	0.000000	0.000000	-0.000000	-0.200000	0.000000	0.302000	0.000000	0.000000	-0.000000
